<svg xmlns="http://www.w3.org/2000/svg" viewBox="0 0 49.71 49.42"><defs><style>.cls-1{fill:#ed6265;}.cls-1,.cls-2{stroke:#f9ef66;stroke-miterlimit:10;stroke-width:0.21px;}.cls-2{fill:#a22027;}</style></defs><title>arrows</title><g id="Layer_2" data-name="Layer 2"><g id="Layer_1-2" data-name="Layer 1"><path class="cls-1" d="M49.35,25.32,25.47,49.06a.87.87,0,0,1-1.22,0L.36,25.32a.86.86,0,0,1,0-1.22L24.24.36a.87.87,0,0,1,1.22,0L49.35,24.1A.86.86,0,0,1,49.35,25.32Z"/><path class="cls-2" d="M11.67,24.24l16.67-9.57a.54.54,0,0,1,.81.47V34.28a.54.54,0,0,1-.81.47L11.67,25.18A.54.54,0,0,1,11.67,24.24Z"/></g></g></svg>