<svg xmlns="http://www.w3.org/2000/svg" viewBox="0 0 150 150"><title>real-estate</title><g id="Layer_2" data-name="Layer 2"><g id="Layer_3" data-name="Layer 3"><path d="M75,0a75,75,0,1,0,75,75A75,75,0,0,0,75,0ZM94.3,146.21v0h-.08a75.11,75.11,0,0,1-19.27,2.5c-6.3,0-18.25-2.5-18.25-2.5v-18.6H94.3v18.58h0Zm3.87-32.69a5.82,5.82,0,0,0,2.34,9.24,6.88,6.88,0,0,1-5.9,3.35H56.39a6.88,6.88,0,0,1-5.9-3.35,5.82,5.82,0,0,0,2.34-9.24h.54a3.27,3.27,0,0,1,0-6.49H97.63a3.27,3.27,0,0,1,0,6.49ZM74.57,103.9a44,44,0,1,1,44-44A44,44,0,0,1,74.57,103.9Z"/><path d="M74.75,141.8c0,6.9.34,6.63.75,6.63s.75.28.75-6.63-.34-13.65-.75-13.65S74.75,134.9,74.75,141.8Z"/><path d="M64.47,142.3c0,6.9,1.49,6.93,1.5,0s-.34-14.15-.75-14.15S64.47,135.4,64.47,142.3Z"/><path d="M85,142.3c0,6.93,1.5,6.9,1.5,0s-.34-14.15-.75-14.15S85,135.4,85,142.3Z"/><path d="M41.23,47.57A52.13,52.13,0,0,1,45,43.85c.65-.59,1.31-1.18,2-1.73s1.33-1.14,2-1.68q2-1.65,4.15-3.19a51.26,51.26,0,0,1,4.34-2.92c3-1.8,6.22-3.28,9.14-5.19.73-.47,1.46-1,2.16-1.48s1.42-1,2.1-1.56c1.39-1.06,2.71-2.21,4-3.35A.94.94,0,0,1,76,22.63l.19.11c1.52.87,3.07,1.69,4.57,2.59s3,1.84,4.44,2.78c2.94,1.89,5.88,3.76,8.7,5.82,1.41,1,2.8,2.08,4.16,3.17s2.73,2.18,4.07,3.31,2.66,2.27,4,3.46,2.58,2.4,3.8,3.68a.2.2,0,0,1-.23.33c-1.63-.72-3.2-1.51-4.75-2.34s-3.08-1.68-4.6-2.56-3-1.79-4.49-2.72-2.95-1.88-4.39-2.85c-2.89-2-5.65-4.1-8.41-6.22-1.38-1.07-2.77-2.13-4.11-3.25s-2.66-2.29-4-3.43H76.2c-1.53.86-3.05,1.72-4.52,2.67-.75.45-1.45,1-2.18,1.45s-1.42,1-2.12,1.54c-2.78,2.11-5.26,4.64-8,6.86a51.26,51.26,0,0,1-4.21,3.1Q53,41.62,50.79,43c-.74.46-1.5.89-2.26,1.33s-1.52.87-2.3,1.28a52.13,52.13,0,0,1-4.78,2.31.2.2,0,0,1-.23-.33Z"/><path d="M103.84,48.93c.11,1.47.18,2.93.27,4.4s.14,2.93.2,4.4q.2,4.4.31,8.79c.07,2.93.13,5.86.16,8.79,0,1.47,0,2.93,0,4.4l0,4.4v0a1,1,0,0,1-1,1h0L93.07,85l-5.33-.14-5.33-.2h0a.54.54,0,0,1-.52-.55c.06-2.39.15-4.77.2-7.16s.06-4.77,0-7.16S82,65,81.94,62.63l-.26-7.16.72.72c-4.47.19-8.94.22-13.42.15l.87-.87c0,4.43-.11,8.86-.22,13.29-.06,2.22-.13,4.43-.22,6.65s-.18,4.43-.32,6.65a.1.1,0,0,1-.2,0c-.14-2.22-.22-4.43-.32-6.65s-.16-4.43-.22-6.65c-.11-4.43-.2-8.86-.22-13.29A.86.86,0,0,1,69,54.6h0c4.47-.06,8.94,0,13.42.15h.06a.69.69,0,0,1,.66.71l-.26,7.16c-.09,2.39-.14,4.77-.15,7.16s0,4.77,0,7.16.13,4.77.2,7.16l-.55-.55,5.33-.2,5.33-.14L103.74,83l-1.05,1.05,0-4.4c0-1.47,0-2.93,0-4.4,0-2.93.09-5.86.16-8.79s.18-5.86.31-8.79c.06-1.47.11-2.93.2-4.4s.16-2.93.27-4.4a.1.1,0,0,1,.2,0Z"/><path d="M47.49,48.93c.4,2.93.57,5.86.69,8.79.07,1.47.08,2.93.11,4.4s0,2.93-.1,4.4l-.3,4.4c-.11,1.47-.18,2.93-.19,4.4s0,2.93.08,4.4L48,84.1l-.64-.64c2.58-.2,5.16-.27,7.74-.33S60.3,83,62.88,83c1.29,0,2.58,0,3.87.1s2.58.11,3.87.18,2.58.18,3.87.28c.65,0,1.29.12,1.94.18s1.29.13,1.94.21a.1.1,0,0,1,0,.2c-.65.09-1.29.15-1.94.21s-1.29.14-1.94.18c-1.29.09-2.58.2-3.87.28S68,85,66.75,85s-2.58.07-3.87.1c-2.58.05-5.16,0-7.74-.09s-5.16-.13-7.74-.33h-.09a.6.6,0,0,1-.55-.63L47,79.7c.06-1.47.09-2.93.08-4.4s-.07-2.93-.19-4.4l-.3-4.4c-.09-1.47-.11-2.93-.1-4.4s0-2.93.11-4.4c.12-2.93.29-5.86.69-8.79a.1.1,0,0,1,.2,0Z"/></g></g></svg>